<?xml version="1.0" encoding="UTF-8"?>
<svg width="20px" height="20px" viewBox="0 0 20 20" version="1.1" xmlns="http://www.w3.org/2000/svg" xmlns:xlink="http://www.w3.org/1999/xlink">
    <!-- Generator: Sketch 61.2 (89653) - https://sketch.com -->
    <title>Shape</title>
    <desc>Created with Sketch.</desc>
    <g id="Symbols" stroke="none" stroke-width="1" fill="none" fill-rule="evenodd">
        <g id="Header" transform="translate(-380.000000, -18.000000)" fill="#FFFFFF" fill-rule="nonzero">
            <g id="Header-Top">
                <path d="M390,18 C384.475806,18 380,22.4758065 380,28 C380,33.5241935 384.475806,38 390,38 C395.524194,38 400,33.5241935 400,28 C400,22.4758065 395.524194,18 390,18 Z M390,36 C385.58,36 382,32.42 382,28 C382,23.58 385.58,20 390,20 C394.42,20 398,23.58 398,28 C398,32.42 394.42,36 390,36 Z M392.416395,31.9081192 L388.871273,29.4390928 C388.741828,29.3470545 388.666667,29.2029946 388.666667,29.0509314 L388.666667,22.4801996 C388.666667,22.2160898 388.892151,22 389.167744,22 L390.50395,22 C390.779542,22 391.005027,22.2160898 391.005027,22.4801996 L391.005027,28.1505571 L393.794357,30.0953656 C394.019842,30.2514305 394.065774,30.5515553 393.902924,30.7676451 L393.117903,31.804076 C392.955053,32.0161642 392.641879,32.0641841 392.416395,31.9081192 Z" id="Shape"></path>
            </g>
        </g>
    </g>
</svg>