<?xml version="1.0" encoding="UTF-8"?>
<svg width="179px" height="106px" viewBox="0 0 179 106" version="1.1" xmlns="http://www.w3.org/2000/svg" xmlns:xlink="http://www.w3.org/1999/xlink">
    <!-- Generator: Sketch 61.2 (89653) - https://sketch.com -->
    <title>Group 3</title>
    <desc>Created with Sketch.</desc>
    <defs>
        <polygon id="path-1" points="0.0002 0.0002 178.258 0.0002 178.258 105.4472 0.0002 105.4472"></polygon>
    </defs>
    <g id="Symbols" stroke="none" stroke-width="1" fill="none" fill-rule="evenodd">
        <g id="Header" transform="translate(-380.000000, -69.000000)">
            <g id="Group-3" transform="translate(380.000000, 69.000000)">
                <mask id="mask-2" fill="white">
                    <use xlink:href="#path-1"></use>
                </mask>
                <g id="Clip-2"></g>
                <path d="M38.8862,15.8382 C38.8862,18.9842 40.5942,20.0422 43.0072,20.0422 C44.2292,20.0422 45.1512,19.7712 45.9642,19.3112 L45.9642,16.6252 C45.3132,16.9482 44.6592,17.1112 43.9292,17.1112 C42.8182,17.1112 42.1662,16.5972 42.1662,15.3222 L42.1662,8.2982 L46.0182,8.2982 L46.0182,7.0852 L46.3692,8.4872 C49.1092,8.2712 50.5472,6.9972 50.5472,3.9862 L50.5472,0.8132 L46.9392,0.8132 L46.9392,4.5272 L48.3242,4.5272 C48.4572,5.9382 47.6732,6.7782 46.0182,7.0772 L46.0182,5.4782 L42.1662,5.4782 L42.1662,1.5452 L38.8862,1.5452 L38.8862,5.4782 L37.0692,5.4782 L37.0692,8.2982 L38.8862,8.2982 L38.8862,15.8382 Z M55.2102,13.8592 C56.8922,14.3732 58.4092,14.7532 58.4092,15.8652 L58.4092,15.9192 C58.4092,16.8682 57.5982,17.4652 56.1872,17.4652 C54.7222,17.4652 53.0402,16.8682 51.4932,15.7022 L50.0322,17.9262 C51.8222,19.3362 54.0732,20.0682 56.1072,20.0682 C59.0882,20.0682 61.4212,18.5772 61.4212,15.5672 L61.4212,15.5112 C61.4212,12.9362 59.0632,11.9862 56.9742,11.3372 C55.2922,10.7922 53.7472,10.3592 53.7472,9.3292 L53.7472,9.2742 C53.7472,8.4352 54.4792,7.8352 55.7522,7.8352 C56.9462,7.8352 58.4092,8.3512 59.7952,9.1922 L61.0972,6.8592 C59.5772,5.8572 57.6252,5.2342 55.8362,5.2342 C52.9862,5.2342 50.7372,6.8872 50.7372,9.6012 L50.7372,9.6532 C50.7372,12.3952 53.0962,13.2612 55.2102,13.8592 L55.2102,13.8592 Z M30.5872,7.8612 C32.7572,7.8612 34.0042,9.5172 34.2222,11.6352 L26.8702,11.6352 C27.1682,9.4112 28.5812,7.8612 30.5872,7.8612 L30.5872,7.8612 Z M30.9662,20.1232 C33.5992,20.1232 35.4702,19.0672 36.8252,17.4382 L34.9022,15.7302 C33.7602,16.8422 32.6222,17.4382 31.0222,17.4382 C28.9062,17.4382 27.2802,16.1362 26.8992,13.8032 L37.4222,13.8032 C37.4492,13.4782 37.4782,13.2072 37.4782,12.9072 C37.4782,8.7582 35.1712,5.1802 30.6142,5.1802 C26.5192,5.1802 23.6162,8.5422 23.6162,12.6652 C23.6162,17.1122 26.8182,20.1232 30.9662,20.1232 L30.9662,20.1232 Z M28.4292,68.3502 C23.7622,67.5002 20.0742,66.3252 16.2402,64.3662 L16.2042,85.3432 C16.2182,85.3462 15.6192,85.2522 15.6339229,85.2552 C37.7792,89.2872 57.4722,79.9132 65.9672,59.8802 C56.1982,67.3422 42.3222,70.8812 28.4292,68.3502 L28.4292,68.3502 Z M85.9072,46.9102 L85.9072,46.7652 C85.9072,41.5942 89.5002,38.0022 93.8802,38.0022 C98.2632,38.0022 101.7822,41.6652 101.7822,46.7652 L101.7822,46.9102 C101.7822,52.0812 98.2632,55.7442 93.8802,55.7442 C89.5002,55.7442 85.9072,52.0812 85.9072,46.9102 L85.9072,46.9102 Z M101.5682,61.1332 L101.5682,66.3042 L115.2142,66.3042 L115.2142,13.8652 L101.5682,13.8652 L101.5682,32.1842 C98.9822,29.2382 95.5322,26.5812 89.6442,26.5812 C83.5732,26.5812 78.0812,29.9472 75.0382,35.8632 L78.1522,27.4422 L64.1442,27.4422 L56.8182,50.8592 L49.0592,27.4422 L34.7662,27.4422 L49.8962,65.3422 C56.1962,63.9532 62.0262,61.3922 66.9082,57.8652 L73.2712,40.6502 C72.8072,42.5712 72.5462,44.6572 72.5462,46.9102 L72.5462,47.0542 C72.5462,59.4802 80.5192,67.1662 89.7152,67.1662 C95.5322,67.1662 98.9082,64.3632 101.5682,61.1332 L101.5682,61.1332 Z M24.8552,45.2572 L24.8552,61.1452 C26.3372,61.6782 27.8682,62.1512 29.4542,62.5482 C32.4682,63.3032 35.4972,63.7552 38.5012,63.9332 L38.5012,40.8762 C38.5012,32.0402 33.5442,26.5802 25.2852,26.5802 C19.7532,26.5802 16.1602,29.5262 13.6492,32.7572 L13.6492,13.8652 L0.0002,13.8652 L0.0002,66.3042 L13.6492,66.3042 L13.6492,45.2572 C13.6492,41.0192 16.0902,38.7222 19.3952,38.7222 C22.6262,38.7222 24.8552,41.0192 24.8552,45.2572 L24.8552,45.2572 Z M74.3852,7.9442 C76.6612,7.9442 78.5872,9.5192 78.5872,11.9332 C78.5872,14.2912 76.6612,15.8922 74.3852,15.8922 C72.1332,15.8922 70.3172,14.2912 70.3172,11.9052 C70.3172,9.5192 72.1082,7.9442 74.3852,7.9442 L74.3852,7.9442 Z M73.5162,18.6592 C75.8762,18.6592 77.3652,17.5722 78.5622,16.0252 L78.5622,17.1392 C78.5622,20.0152 76.9602,21.5342 74.0312,21.5342 C72.0792,21.5342 70.4512,20.9632 68.9342,20.0152 L67.7122,22.4842 C69.5552,23.5952 71.7532,24.1912 74.1152,24.1912 C79.0502,24.1912 81.8172,21.9392 81.8172,16.8682 L81.8172,5.4782 L78.5332,5.4782 L78.5332,7.6202 C77.4222,6.2912 75.9292,5.1802 73.5162,5.1802 C70.1822,5.1802 67.0072,7.6752 67.0072,11.9332 C67.0072,16.1892 70.1542,18.6592 73.5162,18.6592 L73.5162,18.6592 Z M19.4162,19.7982 L22.6962,19.7982 L22.6962,0.0002 L19.4162,0.0002 L19.4162,19.7982 Z M164.8242,27.8812 C166.7702,30.8302 167.9052,34.3592 167.9052,38.1552 C167.9052,42.0682 166.5832,46.9082 164.5292,49.9122 C164.5292,49.9082 164.5272,49.8982 164.5272,49.8872 C163.5002,53.1792 160.7312,55.6012 156.8522,55.6012 C152.0402,55.6012 148.5922,51.5792 148.5922,46.8372 L148.5922,46.6932 C148.5922,42.0252 151.7522,38.0732 156.7092,38.0732 C157.8952,38.0732 158.9922,38.3302 159.9812,38.7682 C156.7402,34.1212 150.9812,31.3622 144.5542,31.3622 C139.2382,31.3622 134.4662,33.6882 131.1912,37.3712 C133.9772,33.5642 138.2402,30.8442 143.2842,30.1532 C149.7042,29.2762 155.8322,31.2462 159.7042,35.4422 C161.7842,37.6992 163.2172,40.5962 163.6902,44.0442 C163.7012,44.1432 163.6582,46.9422 163.6702,47.0412 C165.2402,43.9022 165.8682,39.1062 165.3582,35.3662 C164.0092,25.5022 154.9172,18.6002 145.0542,19.9492 C138.3442,20.8692 133.0222,25.3722 130.7202,31.2602 L130.7202,27.3702 L117.0722,27.3702 L117.0722,66.2322 L130.7202,66.2322 L130.7202,54.1642 C130.7202,48.1892 132.5032,44.3792 135.7882,42.4982 C135.4762,43.9002 135.3052,45.3522 135.3052,46.8372 L135.3052,46.9812 C135.3052,58.0442 144.2822,67.1672 156.7092,67.1672 C169.2082,67.1672 178.2582,57.9012 178.2582,46.8372 L178.2582,46.6932 C178.2582,38.1842 172.9392,30.8232 164.8242,27.8812 L164.8242,27.8812 Z M90.1412,8.0542 C92.7172,8.0542 94.5352,10.1432 94.5352,12.6912 C94.5352,15.2132 92.8532,17.2752 90.1952,17.2752 C87.6472,17.2752 85.8292,15.1882 85.8292,12.6382 C85.8292,10.1152 87.5102,8.0542 90.1412,8.0542 L90.1412,8.0542 Z M90.1412,20.1232 C94.5622,20.1232 97.8162,16.7322 97.8162,12.6382 C97.8162,8.5152 94.5882,5.1812 90.1952,5.1812 C85.8002,5.1812 82.5472,8.5672 82.5472,12.6912 C82.5472,16.7852 85.7752,20.1232 90.1412,20.1232 L90.1412,20.1232 Z M127.6192,78.9942 L125.1552,78.9942 L125.1552,75.7352 L127.6322,75.7352 C128.9292,75.7352 129.6852,76.3332 129.6852,77.3312 C129.6852,78.3732 128.8242,78.9942 127.6192,78.9942 L127.6192,78.9942 Z M130.6042,77.2962 C130.6042,75.8502 129.4672,74.9012 127.7002,74.9012 L124.2502,74.9012 L124.2502,82.9272 L125.1552,82.9272 L125.1552,79.8082 L127.4492,79.8082 L129.7782,82.9272 L130.8912,82.9272 L128.4242,79.6492 C129.6852,79.4192 130.6042,78.6392 130.6042,77.2962 L130.6042,77.2962 Z M128.0002,86.0922 L131.4502,94.1772 L132.2522,94.1772 L135.7042,86.0922 L134.7312,86.0922 L131.8652,93.0072 L129.0102,86.0922 L128.0002,86.0922 Z M175.6442,78.4792 C173.8782,78.0992 173.4642,77.6742 173.4642,76.9052 C173.4642,76.1732 174.1282,75.6002 175.1742,75.6002 C175.9992,75.6002 176.7432,75.8612 177.4892,76.4722 L178.0172,75.7732 C177.2012,75.1182 176.3652,74.7822 175.1952,74.7822 C173.6692,74.7822 172.5582,75.7032 172.5582,76.9862 C172.5582,78.3162 173.4072,78.9132 175.2522,79.3142 C176.9402,79.6712 177.3402,80.0952 177.3402,80.8512 C177.3402,81.6652 176.6292,82.2282 175.5502,82.2282 C174.4392,82.2282 173.6372,81.8492 172.8002,81.0932 L172.2372,81.7572 C173.1992,82.6152 174.2432,83.0432 175.5182,83.0432 C177.1132,83.0432 178.2582,82.1472 178.2582,80.7602 C178.2582,79.5212 177.4312,78.8682 175.6442,78.4792 L175.6442,78.4792 Z M116.5072,104.6112 C114.6712,104.6112 113.3422,103.1212 113.3422,101.2852 C113.3422,99.4502 114.6512,97.9832 116.4852,97.9832 C118.3202,97.9832 119.6502,99.4742 119.6502,101.3102 C119.6502,103.1422 118.3412,104.6112 116.5072,104.6112 L116.5072,104.6112 Z M116.5072,97.1462 C114.0662,97.1462 112.4022,99.0852 112.4022,101.3102 C112.4022,103.5332 114.0412,105.4472 116.4852,105.4472 C118.9272,105.4472 120.5902,103.5102 120.5902,101.2852 C120.5902,99.0622 118.9492,97.1462 116.5072,97.1462 L116.5072,97.1462 Z M130.1452,98.1212 L132.8402,98.1212 L132.8402,105.3122 L133.7582,105.3122 L133.7582,98.1212 L136.4522,98.1212 L136.4522,97.2832 L130.1452,97.2832 L130.1452,98.1212 Z M123.4102,101.3792 L123.4102,98.1212 L125.8882,98.1212 C127.1862,98.1212 127.9422,98.7182 127.9422,99.7152 C127.9422,100.7582 127.0792,101.3792 125.8772,101.3792 L123.4102,101.3792 Z M128.8602,99.6792 C128.8602,98.2342 127.7232,97.2832 125.9572,97.2832 L122.5062,97.2832 L122.5062,105.3122 L123.4102,105.3122 L123.4102,102.1922 L125.7072,102.1922 L128.0322,105.3122 L129.1472,105.3122 L126.6802,102.0302 C127.9422,101.8022 128.8602,101.0222 128.8602,99.6792 L128.8602,99.6792 Z M123.6532,86.0932 L117.3442,86.0932 L117.3442,86.9302 L120.0382,86.9302 L120.0382,94.1182 L120.9572,94.1182 L120.9572,86.9302 L123.6532,86.9302 L123.6532,86.0932 Z M125.4302,94.1192 L126.3362,94.1192 L126.3362,86.0932 L125.4302,86.0932 L125.4302,94.1192 Z M158.1982,78.9942 L158.1982,75.7352 L160.6762,75.7352 C161.9722,75.7352 162.7282,76.3332 162.7282,77.3312 C162.7282,78.3732 161.8672,78.9942 160.6632,78.9942 L158.1982,78.9942 Z M163.6462,77.2962 C163.6462,75.8502 162.5102,74.9012 160.7432,74.9012 L157.2922,74.9012 L157.2922,82.9272 L158.1982,82.9272 L158.1982,79.8082 L160.4922,79.8082 L162.8192,82.9272 L163.9342,82.9272 L161.4662,79.6492 C162.7282,79.4192 163.6462,78.6392 163.6462,77.2962 L163.6462,77.2962 Z M108.2952,100.8602 C106.5302,100.4842 106.1152,100.0592 106.1152,99.2912 C106.1152,98.5562 106.7822,97.9832 107.8242,97.9832 C108.6512,97.9832 109.3982,98.2462 110.1412,98.8552 L110.6692,98.1542 C109.8552,97.5012 109.0182,97.1682 107.8482,97.1682 C106.3232,97.1682 105.2112,98.0862 105.2112,99.3722 C105.2112,100.6992 106.0582,101.2982 107.9052,101.6972 C109.5902,102.0542 109.9902,102.4782 109.9902,103.2342 C109.9902,104.0502 109.2822,104.6112 108.2022,104.6112 C107.0922,104.6112 106.2882,104.2332 105.4512,103.4772 L104.8882,104.1402 C105.8532,105.0012 106.8962,105.4272 108.1702,105.4272 C109.7632,105.4272 110.9092,104.5302 110.9092,103.1422 C110.9092,101.9022 110.0842,101.2532 108.2952,100.8602 L108.2952,100.8602 Z M164.9302,75.7352 L167.6272,75.7352 L167.6272,82.9272 L168.5442,82.9272 L168.5442,75.7352 L171.2402,75.7352 L171.2402,74.9012 L164.9302,74.9012 L164.9302,75.7352 Z M151.0382,90.1072 L148.3352,86.0932 L147.2332,86.0932 L150.5722,90.9422 L150.5722,94.1182 L151.4892,94.1182 L151.4892,90.9292 L154.8242,86.0932 L153.7702,86.0932 L151.0382,90.1072 Z M135.4192,78.4792 C133.6552,78.0992 133.2402,77.6742 133.2402,76.9052 C133.2402,76.1732 133.9072,75.6002 134.9492,75.6002 C135.7752,75.6002 136.5232,75.8612 137.2662,76.4722 L137.7942,75.7732 C136.9802,75.1182 136.1432,74.7822 134.9732,74.7822 C133.4482,74.7822 132.3362,75.7032 132.3362,76.9862 C132.3362,78.3162 133.1832,78.9132 135.0302,79.3142 C136.7162,79.6712 137.1152,80.0952 137.1152,80.8512 C137.1152,81.6652 136.4062,82.2282 135.3272,82.2282 C134.2172,82.2282 133.4132,81.8492 132.5762,81.0932 L132.0132,81.7572 C132.9782,82.6152 134.0202,83.0432 135.2942,83.0432 C136.8882,83.0432 138.0342,82.1472 138.0342,80.7602 C138.0342,79.5212 137.2092,78.8682 135.4192,78.4792 L135.4192,78.4792 Z M137.3692,94.1192 L138.2742,94.1192 L138.2742,86.0932 L137.3692,86.0932 L137.3692,94.1192 Z M140.7882,75.7352 L142.8182,75.7352 C144.1142,75.7352 144.9732,76.3332 144.9732,77.4932 C144.9732,78.5582 144.1022,79.2692 142.7732,79.2692 L140.7882,79.2692 L140.7882,75.7352 Z M140.7882,80.0942 L142.7372,80.0942 C144.4462,80.0942 145.8912,79.1992 145.8912,77.4572 C145.8912,75.8612 144.6992,74.9012 142.8872,74.9012 L139.8822,74.9012 L139.8822,82.9272 L140.7882,82.9272 L140.7882,80.0942 Z M140.0542,86.9302 L142.7492,86.9302 L142.7492,94.1182 L143.6652,94.1182 L143.6652,86.9302 L146.3612,86.9302 L146.3612,86.0932 L140.0542,86.0932 L140.0542,86.9302 Z M151.2952,82.2282 C149.4592,82.2282 148.1302,80.7362 148.1302,78.9012 C148.1302,77.0672 149.4362,75.6002 151.2712,75.6002 C153.1052,75.6002 154.4362,77.0892 154.4362,78.9252 C154.4362,80.7602 153.1272,82.2282 151.2952,82.2282 L151.2952,82.2282 Z M151.2952,74.7632 C148.8522,74.7632 147.1882,76.6992 147.1882,78.9252 C147.1882,81.1502 148.8292,83.0662 151.2712,83.0662 C153.7142,83.0662 155.3762,81.1272 155.3762,78.9012 C155.3762,76.6772 153.7372,74.7632 151.2952,74.7632 L151.2952,74.7632 Z M102.4112,91.1832 L104.2472,87.0902 L106.0712,91.1832 L102.4112,91.1832 Z M103.8342,86.0352 L100.1762,94.1182 L101.1052,94.1182 L102.0552,91.9972 L106.4262,91.9972 L107.3662,94.1182 L108.3402,94.1182 L104.6822,86.0352 L103.8342,86.0352 Z M122.4252,82.1012 L117.4712,82.1012 L117.4712,79.2912 L121.8522,79.2912 L121.8522,78.4672 L117.4712,78.4672 L117.4712,75.7252 L122.3662,75.7252 L122.3662,74.9002 L116.5672,74.9002 L116.5672,82.9272 L122.4252,82.9272 L122.4252,82.1012 Z M91.2772,90.2082 L93.4192,92.4212 C92.8352,93.0652 92.1682,93.4652 91.4112,93.4652 C90.4262,93.4652 89.7392,92.8132 89.7392,91.9402 C89.7392,91.2522 90.2102,90.5992 91.2772,90.2082 L91.2772,90.2082 Z M92.0422,86.6992 C92.6972,86.6992 93.1782,87.1682 93.1782,87.8212 C93.1782,88.5322 92.6522,89.0162 91.6302,89.3592 C91.0232,88.7052 90.8262,88.3502 90.8262,87.8702 C90.8262,87.2042 91.3222,86.6992 92.0422,86.6992 L92.0422,86.6992 Z M88.8212,91.9762 C88.8212,93.3282 89.9002,94.2332 91.3442,94.2332 C92.3862,94.2332 93.2352,93.7762 93.9702,92.9842 L95.2322,94.2802 L95.9202,93.7532 L94.5212,92.3182 C94.9542,91.7462 95.3232,91.0562 95.6782,90.3002 L94.9332,89.9562 C94.6472,90.6212 94.3242,91.2302 93.9702,91.7462 L92.1362,89.8772 C93.3042,89.4632 94.0282,88.8202 94.0282,87.7762 C94.0282,86.7572 93.2012,85.9532 92.0792,85.9532 C90.8042,85.9532 89.9562,86.8042 89.9562,87.8702 C89.9562,88.5122 90.2102,89.0042 90.7592,89.6462 C89.5322,90.1272 88.8212,90.8972 88.8212,91.9762 L88.8212,91.9762 Z M102.6542,79.9902 L104.4882,75.8992 L106.3122,79.9902 L102.6542,79.9902 Z M104.9232,74.8422 L104.0742,74.8422 L100.4172,82.9272 L101.3452,82.9272 L102.2962,80.8062 L106.6672,80.8062 L107.6082,82.9272 L108.5792,82.9272 L104.9232,74.8422 Z M113.1472,86.7922 C114.2362,86.7922 114.9922,87.2492 115.6702,87.8932 L116.2882,87.2272 C115.4862,86.4692 114.6142,85.9522 113.1582,85.9522 C110.7952,85.9522 109.0992,87.8202 109.0992,90.1152 C109.0992,92.4332 110.8072,94.2572 113.1232,94.2572 C114.5812,94.2572 115.4972,93.6942 116.3342,92.8472 L115.7392,92.2622 C114.9692,92.9952 114.2452,93.4202 113.1472,93.4202 C111.3802,93.4202 110.0382,91.9632 110.0382,90.0952 C110.0382,88.2262 111.3662,86.7922 113.1472,86.7922 L113.1472,86.7922 Z M111.2542,82.9272 L112.1722,82.9272 L112.1722,75.7352 L114.8672,75.7352 L114.8672,74.9012 L108.5592,74.9012 L108.5592,75.7352 L111.2542,75.7352 L111.2542,82.9272 Z M99.5432,74.9012 L97.2502,81.5862 L95.0482,74.8772 L94.3032,74.8772 L92.1012,81.5862 L89.8072,74.9012 L88.8212,74.9012 L91.6872,82.9842 L92.4462,82.9842 L94.6572,76.4722 L96.8582,82.9842 L97.6272,82.9842 L100.4952,74.9012 L99.5432,74.9012 Z M90.3452,101.3792 L90.3452,98.1212 L92.8232,98.1212 C94.1172,98.1212 94.8752,98.7182 94.8752,99.7152 C94.8752,100.7582 94.0152,101.3792 92.8112,101.3792 L90.3452,101.3792 Z M95.7942,99.6792 C95.7942,98.2342 94.6572,97.2832 92.8922,97.2832 L89.4412,97.2832 L89.4412,105.3122 L90.3452,105.3122 L90.3452,102.1922 L92.6402,102.1922 L94.9682,105.3122 L96.0812,105.3122 L93.6152,102.0302 C94.8752,101.8022 95.7942,101.0222 95.7942,99.6792 L95.7942,99.6792 Z M98.6392,101.6742 L103.0182,101.6742 L103.0182,100.8502 L98.6392,100.8502 L98.6392,98.1092 L103.5342,98.1092 L103.5342,97.2812 L97.7332,97.2812 L97.7332,105.3122 L103.5932,105.3122 L103.5932,104.4842 L98.6392,104.4842 L98.6392,101.6742 Z" id="Fill-1" fill="#00ADEE" mask="url(#mask-2)"></path>
            </g>
        </g>
    </g>
</svg>