<?xml version="1.0" encoding="utf-8"?>
<!-- Generator: Adobe Illustrator 22.0.1, SVG Export Plug-In . SVG Version: 6.00 Build 0)  -->
<svg version="1.1" id="Bitcoin-Icon" xmlns="http://www.w3.org/2000/svg" xmlns:xlink="http://www.w3.org/1999/xlink" x="0px"
	 y="0px" viewBox="0 0 160 179.9" style="enable-background:new 0 0 160 179.9;" xml:space="preserve">
<style type="text/css">
	.b-st0{fill:#F7931A;}
</style>
<g id="Bitcoin-Outline">
	<g id="Mask">
		<path class="b-st0" d="M79.9,2L79.9,2c2.2,0,4.3,0.5,6.3,1.5l65.4,37.8c3.7,2.4,6,6.5,6.3,10.9l0.1,75.6c-0.3,4.4-2.6,8.4-6.3,10.9
			l-65.4,37.7c-4,2-8.6,2-12.6,0L8.3,138.6c-3.7-2.4-6-6.5-6.3-10.9V52.1c0.3-4.4,2.6-8.4,6.3-10.9L73.6,3.5C75.6,2.5,77.7,2,79.9,2
			 M79.9,0c-2.5-0.1-5,0.5-7.3,1.7L7.3,39.5C3,42.3,0.3,47,0,52.1l0.1,75.6c0.3,5.1,3,9.8,7.3,12.6l65.4,37.9c4.6,2.3,10,2.3,14.6,0
			l65.4-37.7c4.3-2.8,7-7.5,7.3-12.6L160,52.3c-0.3-5.1-3-9.8-7.3-12.6l-65.5-38C85,0.5,82.4-0.1,79.9,0z"/>
	</g>
</g>
<path id="Bitcoin" class="b-st0" d="M76.8,130.8l2.8-11.3c11.6,2.1,20.3,1.3,23.9-9.3c3.1-8.5,0-13.4-6.2-16.5c4.6-1,8-4.1,8.8-10
	C107.4,75.4,101,71,92,68.2l2.8-11.1l-6.7-1.8l-2.6,10.8c-1.8-0.5-3.6-0.8-5.4-1.3L83,54l-6.7-1.8l-2.8,11.1c-1.5-0.3-3.1-0.8-4.4-1
	L59.8,60L58,67.2l4.9,1.3c2.6,0.5,3.1,2.3,3.1,3.9L62.9,85c0.3,0,0.5,0,0.8,0.3c-0.3,0-0.5-0.3-0.8-0.3l-4.4,17.8
	c-0.3,0.8-1.3,2.1-3.1,1.5l-4.9-1.3l-3.3,7.7L56,113c1.8,0.5,3.3,0.8,4.9,1.3L58,125.6l6.7,1.8l2.8-11.1c1.8,0.3,3.6,0.8,5.4,1.3
	l-2.8,11.1L76.8,130.8z M78.6,72.8c3.9,1,16,2.8,14.2,10.8c-1.8,7.7-13.6,3.9-17.5,2.8L78.6,72.8z M69.9,108.1l3.6-14.9
	c4.6,1.3,19.3,3.3,17.2,12.1C88.7,113.8,74.5,109.1,69.9,108.1z"/>
</svg>
