<?xml version="1.0" encoding="utf-8"?>
<!-- Generator: Adobe Illustrator 22.0.1, SVG Export Plug-In . SVG Version: 6.00 Build 0)  -->
<svg version="1.1" id="Exchange-Icon" xmlns="http://www.w3.org/2000/svg" xmlns:xlink="http://www.w3.org/1999/xlink" x="0px"
	 y="0px" viewBox="0 0 160 179.9" style="enable-background:new 0 0 160 179.9;" xml:space="preserve">
<g id="Exchange-Outline">
	<g id="Mask">
		<path style="fill:#43CB83;" d="M79.9,2L79.9,2c2.2,0,4.3,0.5,6.3,1.5l65.4,37.8c3.7,2.4,6,6.5,6.3,10.9l0.1,75.6
			c-0.3,4.4-2.6,8.4-6.3,10.9l-65.4,37.7c-4,2-8.6,2-12.6,0L8.3,138.6c-3.7-2.4-6-6.5-6.3-10.9V52.1c0.3-4.4,2.6-8.4,6.3-10.9
			L73.6,3.5C75.6,2.5,77.7,2,79.9,2 M79.9,0c-2.5-0.1-5,0.5-7.3,1.7L7.3,39.5C3,42.3,0.3,47,0,52.1l0.1,75.6c0.3,5.1,3,9.8,7.3,12.6
			l65.4,37.9c4.6,2.3,10,2.3,14.6,0l65.4-37.7c4.3-2.8,7-7.5,7.3-12.6L160,52.3c-0.3-5.1-3-9.8-7.3-12.6l-65.5-38
			C85,0.5,82.4-0.1,79.9,0z"/>
	</g>
</g>
<g id="Exchange">
	<path style="fill:#43CB83;" d="M127.4,107.9H99.6c-9.9,0-18-8.1-18-18s8.1-18,18-18h23.8l-10.3,10.3c-0.6,0.6-0.6,1.7,0,2.3
		c0.3,0.3,0.7,0.5,1.2,0.5c0.4,0,0.8-0.2,1.2-0.5l13.1-13.1c0.2-0.2,0.3-0.3,0.4-0.5c0.2-0.4,0.2-0.8,0-1.2
		c-0.1-0.2-0.2-0.4-0.4-0.5l-13.1-13.1c-0.6-0.6-1.7-0.6-2.3,0c-0.6,0.6-0.6,1.7,0,2.3l10.3,10.3H99.6c-11.7,0-21.2,9.5-21.2,21.2
		s9.5,21.2,21.2,21.2h27.8c0.9,0,1.6-0.7,1.6-1.6S128.3,107.9,127.4,107.9z"/>
	<path style="fill:#B1E97C;" d="M60.4,68.7H32.6c-0.9,0-1.6,0.7-1.6,1.6c0,0.9,0.7,1.6,1.6,1.6h27.8c9.9,0,18,8.1,18,18
		s-8.1,18-18,18H36.6l10.3-10.3c0.6-0.6,0.6-1.7,0-2.3c-0.6-0.6-1.7-0.6-2.3,0l-13.1,13.1c-0.2,0.2-0.3,0.3-0.4,0.5
		c-0.2,0.4-0.2,0.8,0,1.2c0.1,0.2,0.2,0.4,0.4,0.5l13.1,13.1c0.3,0.3,0.7,0.5,1.2,0.5s0.8-0.2,1.2-0.5c0.6-0.6,0.6-1.7,0-2.3
		l-10.3-10.3h23.8c11.7,0,21.2-9.5,21.2-21.2S72.1,68.7,60.4,68.7z"/>
</g>
</svg>
