<?xml version="1.0" encoding="utf-8"?>
<!-- Generator: Adobe Illustrator 21.1.0, SVG Export Plug-In . SVG Version: 6.00 Build 0)  -->
<svg version="1.1" id="White_BG" xmlns="http://www.w3.org/2000/svg" xmlns:xlink="http://www.w3.org/1999/xlink" x="0px" y="0px"
	 viewBox="0 0 480.8 183.7" style="enable-background:new 0 0 480.8 183.7;" xml:space="preserve">
<style type="text/css">
	.st0{fill:#FFFFFF;}
	.st1{fill:none;stroke:#FFFFFF;stroke-width:17;stroke-linecap:round;stroke-linejoin:round;stroke-miterlimit:10;}
</style>
<g>
	<path class="st0" d="M5.4,162.8c-1-2.3-1.5-4.8-1.5-7.6s0.5-5.2,1.5-7.6c1-2.3,2.4-4.3,4.1-5.9c1.7-1.6,3.8-2.9,6.2-3.8
		c2.4-0.9,5-1.4,7.7-1.4c5.4,0,9.7,1.9,13.1,5.6c0.5,0.6,0.7,1.2,0.7,1.9c0,0.8-0.3,1.5-0.9,2.1c-0.6,0.6-1.4,0.9-2.3,0.9
		c-0.9,0-1.7-0.3-2.4-1c-1.1-1.2-2.3-2.1-3.8-2.8c-1.5-0.7-2.9-1-4.5-1c-3.7,0-6.7,1.2-9.1,3.6s-3.6,5.5-3.6,9.3
		c0,3.7,1.2,6.8,3.6,9.3s5.5,3.7,9.1,3.7c1.6,0,3.1-0.3,4.5-1c1.4-0.6,2.7-1.6,3.8-2.7c0.7-0.7,1.5-1,2.5-1c0.9,0,1.6,0.3,2.2,0.9
		c0.6,0.6,0.9,1.3,0.9,2c0,0.7-0.2,1.3-0.7,1.9c-3.4,3.7-7.8,5.6-13.1,5.6c-2.7,0-5.3-0.5-7.7-1.4c-2.4-0.9-4.5-2.2-6.2-3.8
		C7.8,167.1,6.4,165.1,5.4,162.8z"/>
	<path class="st0" d="M48.4,170.3v-29.1c0-1,0.4-2,1.2-2.7c0.8-0.8,1.7-1.1,2.9-1.1h12.5c3.7,0,6.6,1,8.8,3.1
		c2.2,2.1,3.3,4.8,3.3,8.2c0,1.5-0.2,2.9-0.7,4.2c-0.5,1.3-1.2,2.3-2,3.2c-0.8,0.8-1.7,1.5-2.8,2.1c-1,0.5-2.1,0.9-3.2,1.1l6.2,9.7
		c0.3,0.5,0.4,1,0.4,1.6c0,0.8-0.3,1.5-0.9,2.1c-0.6,0.6-1.4,1-2.4,1c-1.2,0-2.1-0.5-2.8-1.5l-7.4-12.1h-6.4v10.5
		c0,0.9-0.3,1.6-1,2.2c-0.7,0.6-1.5,0.9-2.4,0.9c-0.9,0-1.7-0.3-2.3-0.9C48.7,171.9,48.4,171.2,48.4,170.3z M55.1,154.2H64
		c1.8,0,3.3-0.5,4.5-1.5c1.2-1,1.8-2.4,1.8-4.1c0-1.7-0.6-3.1-1.8-4.1c-1.2-1-2.7-1.5-4.5-1.5h-8.9V154.2z"/>
	<path class="st0" d="M85.8,140c0-0.8,0.3-1.5,0.9-2c0.6-0.6,1.4-0.9,2.3-0.9c1.1,0,2,0.5,2.7,1.4l9.4,14.2l9.3-14.2
		c0.7-0.9,1.6-1.4,2.8-1.4c0.9,0,1.6,0.3,2.3,0.9c0.6,0.6,0.9,1.3,0.9,2c0,0.7-0.1,1.2-0.4,1.6l-11.5,16.7v12c0,0.9-0.3,1.6-1,2.2
		s-1.4,0.9-2.4,0.9c-0.9,0-1.7-0.3-2.3-0.9c-0.6-0.6-1-1.4-1-2.2v-12l-11.5-16.8C86,141.1,85.8,140.6,85.8,140z"/>
	<path class="st0" d="M127.6,170.3v-29.1c0-1,0.4-2,1.2-2.7c0.8-0.8,1.7-1.1,2.9-1.1h12.5c3.8,0,6.7,1.1,8.9,3.2
		c2.2,2.2,3.3,4.8,3.3,8c0,3.2-1.1,5.8-3.3,8c-2.2,2.2-5.2,3.2-8.9,3.2h-9.9v10.5c0,0.9-0.3,1.6-1,2.2c-0.7,0.6-1.5,0.9-2.4,0.9
		c-0.9,0-1.7-0.3-2.3-0.9C127.9,171.9,127.6,171.2,127.6,170.3z M134.3,154.2h9c1.8,0,3.3-0.5,4.5-1.5c1.2-1,1.8-2.4,1.8-4
		c0-1.7-0.6-3.1-1.7-4.1c-1.2-1-2.7-1.5-4.5-1.5h-9V154.2z"/>
	<path class="st0" d="M163.6,140c0-0.8,0.3-1.4,0.9-1.9s1.3-0.8,2.1-0.8h24.1c0.8,0,1.5,0.3,2.1,0.8c0.6,0.6,0.9,1.2,0.9,2
		c0,0.8-0.3,1.4-0.9,2c-0.6,0.5-1.3,0.8-2.1,0.8h-8.7v27.4c0,0.9-0.3,1.6-1,2.2c-0.7,0.6-1.5,0.9-2.4,0.9c-0.9,0-1.7-0.3-2.3-0.9
		s-0.9-1.4-0.9-2.2V143h-8.7c-0.8,0-1.5-0.3-2.1-0.8C163.9,141.6,163.6,140.9,163.6,140z"/>
	<path class="st0" d="M202.6,164.8c-1.6-2.8-2.4-6-2.4-9.6s0.8-6.7,2.4-9.6c1.6-2.8,3.9-5,6.8-6.6c2.9-1.6,6.2-2.4,9.9-2.4
		c2.7,0,5.3,0.5,7.7,1.4c2.4,0.9,4.4,2.2,6.1,3.9c1.7,1.6,3,3.6,3.9,5.9s1.4,4.8,1.4,7.4s-0.5,5.1-1.4,7.4c-1,2.3-2.3,4.3-3.9,5.9
		c-1.7,1.6-3.7,2.9-6.1,3.9c-2.4,0.9-4.9,1.4-7.7,1.4c-3.7,0-7-0.8-9.9-2.4C206.5,169.9,204.2,167.7,202.6,164.8z M207,155.3
		c0,3.7,1.1,6.8,3.4,9.3c2.2,2.4,5.2,3.7,8.9,3.7s6.6-1.2,8.9-3.7c2.3-2.4,3.4-5.5,3.4-9.3c0-3.8-1.1-6.8-3.4-9.3s-5.2-3.6-8.9-3.6
		c-3.7,0-6.6,1.2-8.9,3.6C208.1,148.4,207,151.5,207,155.3z"/>
	<path class="st0" d="M268.1,162.8c-1-2.3-1.5-4.8-1.5-7.6s0.5-5.2,1.5-7.6c1-2.3,2.4-4.3,4.1-5.9c1.7-1.6,3.8-2.9,6.2-3.8
		c2.4-0.9,5-1.4,7.7-1.4c5.4,0,9.7,1.9,13.1,5.6c0.5,0.6,0.7,1.2,0.7,1.9c0,0.8-0.3,1.5-0.9,2.1c-0.6,0.6-1.4,0.9-2.3,0.9
		c-0.9,0-1.7-0.3-2.4-1c-1.1-1.2-2.3-2.1-3.8-2.8c-1.5-0.7-2.9-1-4.5-1c-3.7,0-6.7,1.2-9.1,3.6s-3.6,5.5-3.6,9.3
		c0,3.7,1.2,6.8,3.6,9.3s5.5,3.7,9.1,3.7c1.6,0,3.1-0.3,4.5-1c1.4-0.6,2.7-1.6,3.8-2.7c0.7-0.7,1.5-1,2.5-1c0.9,0,1.6,0.3,2.2,0.9
		c0.6,0.6,0.9,1.3,0.9,2c0,0.7-0.2,1.3-0.7,1.9c-3.4,3.7-7.8,5.6-13.1,5.6c-2.7,0-5.3-0.5-7.7-1.4c-2.4-0.9-4.5-2.2-6.2-3.8
		C270.5,167.1,269.1,165.1,268.1,162.8z"/>
	<path class="st0" d="M311.8,164.8c-1.6-2.8-2.4-6-2.4-9.6s0.8-6.7,2.4-9.6c1.6-2.8,3.9-5,6.8-6.6c2.9-1.6,6.2-2.4,9.9-2.4
		c2.7,0,5.3,0.5,7.7,1.4c2.4,0.9,4.4,2.2,6.1,3.9c1.7,1.6,3,3.6,3.9,5.9s1.4,4.8,1.4,7.4s-0.5,5.1-1.4,7.4c-1,2.3-2.3,4.3-3.9,5.9
		c-1.7,1.6-3.7,2.9-6.1,3.9s-4.9,1.4-7.7,1.4c-3.7,0-7-0.8-9.9-2.4C315.7,169.9,313.4,167.7,311.8,164.8z M316.2,155.3
		c0,3.7,1.1,6.8,3.4,9.3s5.2,3.7,8.9,3.7s6.6-1.2,8.9-3.7s3.4-5.5,3.4-9.3c0-3.8-1.1-6.8-3.4-9.3s-5.2-3.6-8.9-3.6
		c-3.7,0-6.6,1.2-8.9,3.6C317.4,148.4,316.2,151.5,316.2,155.3z"/>
	<path class="st0" d="M354.1,170c0-0.5,0.1-0.8,0.3-1.2l11.6-28.5c0.4-1,1.1-1.9,2-2.5s2-0.9,3.1-0.9c0.1,0,0.2,0,0.3,0
		c1.1,0,2.1,0.3,3.1,0.8c1,0.6,1.8,1.5,2.2,2.5l11.7,28.5c0.1,0.5,0.2,0.9,0.2,1.2c0,0.9-0.3,1.7-1,2.4s-1.5,1.1-2.6,1.1
		c-0.7,0-1.4-0.2-2-0.6c-0.6-0.4-1-0.9-1.3-1.5l-2-5h-17l-2,5c-0.2,0.6-0.7,1.1-1.3,1.5c-0.6,0.4-1.3,0.6-2,0.6c-1,0-1.9-0.3-2.6-1
		C354.4,171.8,354.1,171,354.1,170z M364.7,160.7H378l-6.6-16.9L364.7,160.7z"/>
	<path class="st0" d="M396.7,162.8c-1-2.3-1.5-4.8-1.5-7.6s0.5-5.2,1.5-7.6c1-2.3,2.4-4.3,4.1-5.9c1.7-1.6,3.8-2.9,6.2-3.8
		c2.4-0.9,5-1.4,7.7-1.4c5.4,0,9.7,1.9,13.1,5.6c0.5,0.6,0.7,1.2,0.7,1.9c0,0.8-0.3,1.5-0.9,2.1c-0.6,0.6-1.4,0.9-2.3,0.9
		c-0.9,0-1.7-0.3-2.4-1c-1.1-1.2-2.3-2.1-3.8-2.8c-1.5-0.7-2.9-1-4.5-1c-3.7,0-6.7,1.2-9.1,3.6s-3.6,5.5-3.6,9.3
		c0,3.7,1.2,6.8,3.6,9.3s5.5,3.7,9.1,3.7c1.6,0,3.1-0.3,4.5-1c1.4-0.6,2.7-1.6,3.8-2.7c0.7-0.7,1.5-1,2.5-1c0.9,0,1.6,0.3,2.2,0.9
		c0.6,0.6,0.9,1.3,0.9,2c0,0.7-0.2,1.3-0.7,1.9c-3.4,3.7-7.8,5.6-13.1,5.6c-2.7,0-5.3-0.5-7.7-1.4c-2.4-0.9-4.5-2.2-6.2-3.8
		C399.1,167.1,397.7,165.1,396.7,162.8z"/>
	<path class="st0" d="M439.7,170.3v-30.2c0-0.8,0.3-1.6,1-2.2c0.6-0.6,1.4-0.9,2.4-0.9c0.9,0,1.7,0.3,2.3,0.9s1,1.3,1,2.2v11.8h19.3
		v-11.8c0-0.8,0.3-1.6,1-2.2c0.7-0.6,1.5-0.9,2.4-0.9c0.9,0,1.7,0.3,2.3,0.9c0.6,0.6,1,1.3,1,2.2v30.2c0,0.9-0.3,1.6-1,2.2
		c-0.7,0.6-1.5,0.9-2.4,0.9c-0.9,0-1.7-0.3-2.3-0.9c-0.6-0.6-0.9-1.4-0.9-2.2v-12.7h-19.3v12.7c0,0.9-0.3,1.6-1,2.2
		c-0.7,0.6-1.5,0.9-2.4,0.9c-0.9,0-1.7-0.3-2.3-0.9C440,171.9,439.7,171.2,439.7,170.3z"/>
</g>
<path class="st1" d="M383,28c-7.9-11.8-21.3-19.5-36.6-19.5c-15.2,0-28.7,7.7-36.6,19.5c-13.4,18.6-36.3,50.3-36.3,50.3
	s-0.3,0.5-0.7,0.9c-0.6,0.7-1.1,1.4-1.1,1.4c-8.1,10.1-20.5,16.6-34.5,16.6c-14.7,0-27.7-7.2-35.7-18.3l-0.6-0.7
	c0,0-22.9-31.7-36.3-50.3c-7.9-11.8-21.3-19.5-36.6-19.5c-24.3,0-44,19.7-44,44s19.7,44,44,44c15.1,0,28.5-7.6,36.4-19.3"/>
<path class="st1" d="M310,77.3c7.9,11.6,21.3,19.3,36.4,19.3c15.1,0,28.5-7.6,36.4-19.3"/>
<path class="st1" d="M200.5,27.8c7.9-11.6,21.3-19.3,36.4-19.3c15.1,0,28.5,7.6,36.4,19.3"/>
</svg>
