<?xml version="1.0" encoding="utf-8"?>
<!-- Generator: Adobe Illustrator 22.0.1, SVG Export Plug-In . SVG Version: 6.00 Build 0)  -->
<svg version="1.1" id="Exchange-Icon" xmlns="http://www.w3.org/2000/svg" xmlns:xlink="http://www.w3.org/1999/xlink" x="0px"
	 y="0px" viewBox="0 0 160 179.9" style="enable-background:new 0 0 160 179.9;" xml:space="preserve">
<g id="Exchange-Outline">
	<g id="Mask">
		<path style="fill:#43CB83;" d="M79.9,2L79.9,2c2.2,0,4.3,0.5,6.3,1.5l65.4,37.8c3.7,2.4,6,6.5,6.3,10.9l0.1,75.6
			c-0.3,4.4-2.6,8.4-6.3,10.9l-65.4,37.7c-4,2-8.6,2-12.6,0L8.3,138.6c-3.7-2.4-6-6.5-6.3-10.9V52.1c0.3-4.4,2.6-8.4,6.3-10.9
			L73.6,3.5C75.6,2.5,77.7,2,79.9,2 M79.9,0c-2.5-0.1-5,0.5-7.3,1.7L7.3,39.5C3,42.3,0.3,47,0,52.1l0.1,75.6c0.3,5.1,3,9.8,7.3,12.6
			l65.4,37.9c4.6,2.3,10,2.3,14.6,0l65.4-37.7c4.3-2.8,7-7.5,7.3-12.6L160,52.3c-0.3-5.1-3-9.8-7.3-12.6l-65.5-38
			C85,0.5,82.4-0.1,79.9,0z"/>
	</g>
</g>
<path style="fill:#43CB83;" d="M114.4,125.9H45.6c-4.2,0-7.5-3.4-7.5-7.5V66c0-4.2,3.4-7.5,7.5-7.5h23.8c0.1,0,0.1,0,0.2-0.1
	L102,48.1c0.4-0.1,0.7-0.1,1.1,0.1c0.3,0.2,0.6,0.5,0.7,0.9l2.4,9.3h8.2c4.2,0,7.5,3.4,7.5,7.5v52.4
	C121.9,122.5,118.5,125.9,114.4,125.9z M45.6,61.1c-2.7,0-4.8,2.2-4.8,4.8v52.4c0,2.7,2.2,4.8,4.8,4.8h68.7c2.7,0,4.8-2.2,4.8-4.8
	v-16.2H93.7c-3.3,0-6-2.7-6-6v-7.8c0-3.3,2.7-6,6-6h25.5V66c0-2.7-2.2-4.8-4.8-4.8C114.4,61.1,45.6,61.1,45.6,61.1z M93.7,84.9
	c-1.8,0-3.3,1.5-3.3,3.3V96c0,1.8,1.5,3.3,3.3,3.3h25.5V84.9H93.7z M78.5,58.4h24.8l-1.9-7.3L78.5,58.4z M98.1,97
	c-2.7,0-4.9-2.2-4.9-4.9c0-2.7,2.2-4.9,4.9-4.9s4.9,2.2,4.9,4.9C102.9,94.8,100.7,97,98.1,97z M98.1,90c-1.2,0-2.1,1-2.1,2.1
	s1,2.1,2.1,2.1s2.1-1,2.1-2.1S99.2,90,98.1,90z"/>
</svg>
